<?xml version="1.0" encoding="utf-8"?>
<!-- Generator: Adobe Illustrator 21.0.0, SVG Export Plug-In . SVG Version: 6.00 Build 0)  -->
<svg version="1.1" id="Layer_1" xmlns="http://www.w3.org/2000/svg" xmlns:xlink="http://www.w3.org/1999/xlink" x="0px" y="0px"
	 viewBox="0 0 623 134" style="enable-background:new 0 0 623 134;" xml:space="preserve">
<style type="text/css">
	.st0{fill:#FFFFFF;}
	.st1{clip-path:url(#SVGID_2_);fill:#FFFFFF;}
	.st2{clip-path:url(#SVGID_4_);fill:#FFFFFF;}
	.st3{enable-background:new    ;}
	.st4{fill:#F9C905;}
</style>
<g>
	<path class="st0" d="M474.7,6.6c-5.4,0-10.3,3.6-11.8,9.1c-1.8,6.6,2.1,13.4,8.6,15.2c6.6,1.8,13.4-2.1,15.2-8.6
		c1.8-6.6-2.1-13.4-8.6-15.2C477,6.7,475.9,6.6,474.7,6.6L474.7,6.6z M453.5,23.5c-1.8,0-3.7,0.8-4.7,1.9l-20.5,24
		c-0.9,1.1-2,2-2.8,3.1c-1.9,2.5-4.3,7.7-0.2,12L446,83.2l-4.6,26.6c-0.3,8.2,11.8,10.2,13.8,2.2l5.5-30.3c0.2-1.8,0-3.8-1.6-5.8
		l-12.6-13.6l0.7-0.8L459,47.2l1.7-1.9L471,58.7c0.7,0.9,1.9,1.3,3,1.1l20.7,2.7c6-0.4,6.8-9,1.2-10.7l-16.1-2.1L466.2,33
		c-0.2-0.2-0.4-0.4-0.6-0.6l-9.5-8c-0.3-0.3-0.8-0.5-1.2-0.6C454.4,23.6,454,23.5,453.5,23.5L453.5,23.5z M406.1,65
		c-0.2,0-0.4,0-0.6,0c-9.5,0.1-18.8,4.4-24.9,11.5c-5.6,6.4-8.6,15-8.3,23.5c0.3,6.9,2.7,13.6,6.8,19c1.6-0.4,3.2-1.1,4.8-1.8
		c-1.7-2-3.2-4.3-4.3-6.8c-3.9-8.7-3.2-19.5,2.1-27.5c5.2-7.9,14.4-13.1,23.9-13.1c0.2,0,0.3,0,0.5,0c8.5,0,17,4.1,22.2,10.8
		c4.6,5.8,6.9,13.3,6.2,20.6c-0.8,8.1-5,15.8-11.6,20.5c-6.8,5-15.8,6.8-24,4.7c-0.3-0.1-0.6-0.2-0.9-0.2c-2.3,0.7-4.4,1.7-6.4,2.8
		c4,1.9,8.4,3,12.9,3.1c8.3,0.3,16.6-2.5,22.9-7.8c6.7-5.6,11.1-13.8,11.9-22.4c0.9-8.4-1.6-17.1-6.7-23.8c-5.3-7-13.5-11.8-22.3-13
		C409,65.1,407.5,65,406.1,65L406.1,65z M494.9,65c-0.2,0-0.4,0-0.6,0c-9.5,0.1-18.8,4.4-24.9,11.5c-5.6,6.4-8.6,15-8.3,23.5
		c0.3,8.7,4.1,17.1,10.4,23c5.8,5.6,13.8,9,21.9,9.2c8.3,0.3,16.6-2.5,22.9-7.8c4.7-3.9,8.3-9.2,10.3-15c-1.7,0-3.5,0-5.2,0
		c-2,4.9-5.3,9.3-9.6,12.4c-6.8,5-15.8,6.8-24,4.7c-8.4-2.1-15.8-8.1-19.3-16.1c-3.9-8.7-3.2-19.5,2.1-27.5
		c5.2-7.9,14.4-13.1,23.9-13.1c0.2,0,0.3,0,0.5,0c8.5,0,17,4.1,22.2,10.8c2.2,2.8,3.9,5.9,4.9,9.3c1.7,0.1,3.4,0.1,5.2,0.2
		c-1.1-4.3-3.1-8.4-5.8-11.9c-5.3-7-13.5-11.8-22.3-13C497.8,65.1,496.4,65,494.9,65L494.9,65z"/>
	<g>
		<g>
			<defs>
				<rect id="SVGID_1_" x="253" width="370" height="134"/>
			</defs>
			<clipPath id="SVGID_2_">
				<use xlink:href="#SVGID_1_"  style="overflow:visible;"/>
			</clipPath>
			<path class="st1" d="M323.3,76.7c-0.7,0-1.5,0.2-2.3,0.6c-0.1,0-0.2,0.1-0.3,0.1l-32.1,17.7c-0.1,0.1-0.2,0.1-0.3,0.2
				c-0.9,0.8-0.8,2.6,0.1,4.3l1.4,2.6c1,1.9,1.8,1.9,3,1.3l26.7-14.7l8.3,13.8l-23.6,13.9c-3.3-1.7-4.9-2.2-7.2-2.5
				c-5.3-0.6-8.9,0.5-16.4,4.7c-8.4,4.7-17.3,5.6-25.6,0c-0.4-0.2-0.8-0.5-1.2-0.7v9.1c0.1,0.1,0.2,0.1,0.4,0.2
				c3.6,2,7.6,3.9,8.8,4.2c6.2,1.4,10.2,0.5,18.6-4.3c8.4-4.7,17.3-5.6,25.7,0c11.7,6.6,16.4,6.6,28.1,0c8.4-4.7,17.3-5.6,25.6,0
				c11.3,6.5,16.1,6.6,27.4,0.1c3.6-2.1,5.8-3.1,7.6-3.6v-9.2c-2.1,0.8-4.8,2.1-8.4,4.1c-8.4,4.7-17.3,5.5-25.6,0
				c-5.9-3.4-10.1-5-14.2-5c-0.1,0-0.3,0-0.4,0l-3.8-5.7l-4-6.6V101h-0.2l-14.1-23.6C324.8,77,324.1,76.7,323.3,76.7L323.3,76.7z
				 M355.5,86.9c-6.8,0-12.3,5.5-12.3,12.3s5.5,12.3,12.3,12.3s12.3-5.5,12.3-12.3S362.3,86.9,355.5,86.9L355.5,86.9z"/>
		</g>
		<g>
			<defs>
				<rect id="SVGID_3_" x="253" width="370" height="134"/>
			</defs>
			<clipPath id="SVGID_4_">
				<use xlink:href="#SVGID_3_"  style="overflow:visible;"/>
			</clipPath>
			<path class="st2" d="M581.9,0.8c-3.4,0-6.8,1.4-9.3,4c-4.9,5.2-4.7,13.4,0.5,18.3s13.4,4.7,18.3-0.5c4.9-5.2,4.7-13.4-0.5-18.3
				c-1.8-1.7-3.9-2.8-6.1-3.3C583.8,0.9,582.8,0.8,581.9,0.8L581.9,0.8z M565.7,25.5L537.9,31c-0.6-0.1-1.1,0.1-1.4,0.4
				c-0.1,0.1-0.1,0.1-0.2,0.2l-12.4,22.6c-1.7,1.9-1.6,4.8,0,6.9v0.1c0.1,0.1,0.3,0.3,0.4,0.4c0.1,0.1,0.3,0.3,0.4,0.4h0.1
				c2.2,1.6,5.1,1.5,6.9-0.3l9.7-19.4l16-4C553.4,48.3,543,66,543,66l-5.9,27l-24.4,0.1c-9-0.3-9,13.5-0.1,13.4h10.5l17.8-0.1l0,0
				c6.3-0.1,8.4-2.7,10-7l6.8-15l25.9,15.2l-0.3,25.6c0,9.4,13.6,9.3,13.6,0v-20.5v-9.4c-0.7-4-2.3-5.7-5.5-8l-21.9-15.7l10.1-21.9
				l15.9,12.8c0.1,0.1,0.3,0.1,0.4,0.2c0.8,0.5,1.6,0.8,2.3,0.5c0.1-0.1,0.3-0.2,0.4-0.2l0.2-0.1c1-0.2,2-0.8,2.8-1.6l18.1-15.8
				c2.2-1.3,3-4.1,2-6.7v-0.1c-0.1-0.2-0.2-0.3-0.3-0.5s-0.3-0.5-0.4-0.6h-0.1c-0.9-1.1-2.1-1.9-3.4-2.1c-1.1-0.2-2.3-0.1-3.4,0.5
				l-15.4,12.1l-18.5-17.2c-0.1,0-0.1-0.1-0.2-0.1l-0.4-0.2L565.7,25.5z"/>
		</g>
	</g>
</g>
<g class="st3">
	<path class="st0" d="M37.9,31.2H17.4v-16h20.5V31.2z M37.9,92.4H17.4V38h20.5V92.4z"/>
</g>
<g class="st3">
	<path class="st4" d="M48.4,15.2h90.3v19.2h-33.3v58.1H81.7V34.4H48.4V15.2z"/>
	<path class="st4" d="M149.1,15.2h71.5c4.5,0,8.2,0.5,11.2,1.6c3,1.1,5.4,2.6,7.1,4.6c1.7,2,3,4.4,3.7,7.2c0.7,2.8,1.1,6,1.1,9.6V43
		c0,5.5-0.9,9.8-2.7,12.8c-1.8,3-5.3,5-10.5,6.2v0.2c2,0.4,3.7,0.9,5.2,1.5c1.5,0.7,2.8,1.6,4,2.8c1.2,1.2,2.1,2.9,2.7,5
		c0.6,2.1,1,4.7,1,7.7v13.1h-23.7v-9.3c0-4.1-0.7-6.9-2.1-8.4c-1.4-1.6-3.9-2.3-7.6-2.3h-37.2v20.1h-23.7V15.2z M172.7,53.2h39.2
		c3.1,0,5.4-0.6,6.7-1.9c1.4-1.3,2-3.3,2-6.2v-2.6c0-3.3-0.8-5.4-2.5-6.5c-1.6-1.1-4.4-1.6-8.4-1.6h-37V53.2z"/>
	<path class="st4" d="M261,15.2h23.7v77.3H261V15.2z"/>
</g>
</svg>
